<svg width="120" height="120" viewBox="0 0 120 120" fill="none" xmlns="http://www.w3.org/2000/svg">
<path d="M87.733 74.8756V75.6186C87.733 78.2898 87.726 80.961 87.7409 83.6322C87.743 84.0133 87.6282 84.1207 87.2507 84.1219C83.1972 84.136 79.4967 83.0086 76.1857 80.6719C73.9715 79.1091 72.1837 77.1422 70.8275 74.7858C69.5057 72.489 68.6948 70.0273 68.4263 67.3947C68.2112 65.2864 68.3533 63.199 68.8506 61.1316C69.3851 58.91 70.2892 56.8593 71.5853 54.9823C73.7551 51.8401 76.6094 49.558 80.1679 48.1534C82.2324 47.3382 84.3702 46.9175 86.5846 46.8668C86.8557 46.8606 87.128 46.8925 87.3983 46.878C87.6568 46.8642 87.7377 46.9608 87.7371 47.2166C87.7305 50.3332 87.7326 53.4495 87.7318 56.5659C87.7318 56.6291 87.7216 56.6922 87.7126 56.7966C84.6114 56.6342 81.9794 57.626 79.9427 59.996C78.3939 61.798 77.7032 63.9166 77.8032 66.285C77.8734 67.953 78.3931 69.4805 79.3143 70.8758C80.2277 72.2591 81.4491 73.2744 82.9261 74.0102C84.4292 74.7586 86.0283 74.9696 87.733 74.8756Z" fill="#0C0C0D"/>
<path d="M68.3305 46.8141C68.3305 46.4872 68.3305 46.2129 68.3305 45.9387C68.3305 43.8274 68.3267 41.7162 68.3317 39.6051C68.3383 36.9927 70.3139 34.9207 72.923 34.8591C74.9188 34.8122 76.9164 34.8498 78.995 34.8498V35.4688C78.995 37.6354 78.9971 39.8023 78.9944 41.969C78.9912 44.6464 77.2283 46.6481 74.5755 46.8039C72.6561 46.9168 70.7253 46.8383 68.7998 46.8434C68.6727 46.8438 68.5455 46.8281 68.3305 46.8141Z" fill="#BF2F19"/>
<path d="M55.248 63.2803C55.248 59.9935 55.1686 57 55.2659 54.0123C55.427 49.0666 50.743 44.0481 44.8083 44.9101C40.4115 45.5486 37.0464 49.2281 36.8674 53.779C36.7025 57.9695 39.793 62.2813 43.962 62.8513C47.637 63.354 51.4072 63.1621 55.248 63.2803ZM65.1857 73.0348C58.1937 73.0348 51.2881 73.4301 44.4474 72.9321C36.3648 72.3439 30.7228 67.7798 28.0424 60.1168C24.2271 49.2092 31.0168 37.6156 42.3459 35.2668C53.0521 33.0471 63.7535 40.7294 64.9784 51.5296C65.1038 52.6359 65.1732 53.7548 65.1768 54.868C65.1957 60.8884 65.1857 66.9091 65.1857 73.0348Z" fill="#0C0C0D"/>
<path d="M15.4453 66.6456C15.4453 67.8605 15.4143 69.0762 15.4568 70.2895C15.4829 71.0337 15.6052 71.7763 15.7128 72.5156C17.0395 81.6229 21.048 89.3042 28.1946 95.1508C37.9568 103.138 49.2738 104.907 61.3442 102.697C72.0323 100.741 81.1598 95.6084 88.8166 87.9626C98.6287 78.1648 104.371 66.4767 104.548 52.4046C104.676 42.2263 101.444 33.2343 94.1377 26.0525C84.2619 16.3458 72.1546 13.8989 58.9063 16.2369C47.2385 18.2959 37.4982 24.0648 29.4684 32.6809C20.5711 42.2282 15.5831 53.4674 15.4453 66.6456ZM108.75 52.3163C108.454 66.2801 103.285 78.352 93.8923 88.6272C85.2303 98.1026 74.6649 104.466 61.9575 106.775C48.3388 109.25 35.6763 106.993 24.9141 97.7545C16.537 90.5634 12.0823 81.2361 11.3676 70.236C10.3551 54.6476 15.927 41.3961 26.3052 30.054C34.2564 21.3645 43.9604 15.4073 55.49 12.725C67.0804 10.0283 78.3635 10.8184 88.8453 16.8658C99.458 22.9888 105.729 32.2967 108.011 44.3102C108.237 45.5013 108.428 46.7048 108.535 47.9114C108.662 49.3529 108.681 50.8042 108.75 52.3163Z" fill="#0C0C0D"/>
</svg>
